<?xml version="1.0" encoding="UTF-8"?>
<svg version="1.1" xmlns="http://www.w3.org/2000/svg" width="1024" height="1024">
<path d="M0 0 C0.98057373 0.28230469 0.98057373 0.28230469 1.98095703 0.5703125 C28.30758159 8.19569253 51.17457471 20.05216196 72 38 C73.45019531 39.24716797 73.45019531 39.24716797 74.9296875 40.51953125 C106.36181279 68.11359624 126.80939586 109.2132357 130 151 C131.56012802 194.7998019 123.48249605 235.46742393 96.09375 270.859375 C95.4028125 271.56578125 94.711875 272.2721875 94 273 C91 273 91 273 88.93086243 271.29162598 C88.1381041 270.49220581 87.34534576 269.69278564 86.52856445 268.86914062 C85.62785721 267.96820679 84.72714996 267.06727295 83.79914856 266.13903809 C82.82036521 265.14493379 81.84174666 264.15066723 80.86328125 263.15625 C79.85931288 262.14668703 78.85468054 261.13778395 77.84941101 260.1295166 C75.20416642 257.47281258 72.56805356 254.80722301 69.93371582 252.13970947 C67.24445099 249.41976746 64.54668329 246.70828857 61.84960938 243.99609375 C56.5580278 238.67232866 51.27606072 233.33915199 46 228 C47.43522486 223.60829643 49.07234661 219.41613021 50.9375 215.1875 C62.72028939 187.89917077 64.55007677 153.18817901 54 125 C48.77482168 111.93575892 42.4711749 100.42729936 33 90 C32.18789063 89.08992188 31.37578125 88.17984375 30.5390625 87.2421875 C12.13701236 67.76817327 -16.07033863 54.98692947 -42.74365234 53.83886719 C-65.37541572 53.59152551 -85.93490076 53.72417505 -107 63 C-107.61359375 63.26828613 -108.2271875 63.53657227 -108.859375 63.81298828 C-134.31773674 75.17541415 -154.79418057 96.437315 -164.93896484 122.40332031 C-165.81973039 124.83914957 -166.64517359 127.2840456 -167.4375 129.75 C-167.67243164 130.48105957 -167.90736328 131.21211914 -168.14941406 131.96533203 C-177.34492672 162.74645921 -173.15568876 196.66612426 -158.08740234 224.67895508 C-155.19685306 229.86797257 -151.86556976 234.48708602 -148 239 C-147.54367187 239.5878125 -147.08734375 240.175625 -146.6171875 240.78125 C-130.89567257 260.54544019 -102.87754982 273.05602525 -78.21484375 276.53125 C-61.91628486 278.28857879 -43.89381606 278.59389504 -27.9609375 274.65625 C-24.84068799 273.96469074 -22.18449349 273.7312087 -19 274 C-16.9375 276.1875 -16.9375 276.1875 -15 279 C-13.35388194 280.692466 -11.68797822 282.3500873 -10 284 C-8.70849192 285.27944894 -7.41779268 286.55971462 -6.12768555 287.84057617 C-5.40731613 288.5544902 -4.68694672 289.26840424 -3.94474792 290.00395203 C-0.70691237 293.21511583 2.52571595 296.43149959 5.75805664 299.64819336 C7.46820781 301.34821079 9.18013846 303.04643991 10.89379883 304.74291992 C13.36746017 307.19245721 15.83472531 309.64827801 18.30078125 312.10546875 C19.45843742 313.24764107 19.45843742 313.24764107 20.63948059 314.41288757 C21.3440892 315.11734512 22.04869781 315.82180267 22.7746582 316.54760742 C23.71134087 317.47762825 23.71134087 317.47762825 24.66694641 318.42643738 C26 320 26 320 26 322 C8.16107559 328.42348101 -9.06585955 333.84348791 -28 336 C-28.78238037 336.09804932 -29.56476074 336.19609863 -30.37084961 336.29711914 C-55.14860505 339.02581792 -82.78240876 339.18952116 -107 333 C-108.00353516 332.74798828 -109.00707031 332.49597656 -110.04101562 332.23632812 C-122.85643989 328.93550545 -135.14109784 324.88588531 -147 319 C-147.6914209 318.66242676 -148.3828418 318.32485352 -149.09521484 317.97705078 C-159.44078931 312.88237415 -168.87053897 307.03735225 -178 300 C-178.94230469 299.28199219 -179.88460937 298.56398438 -180.85546875 297.82421875 C-215.18913828 270.72390528 -235.61451323 231.28795656 -240.80197144 188.09294128 C-241.12517214 184.67706991 -241.16253677 181.26378518 -241.16796875 177.8359375 C-241.17129715 177.08140289 -241.17462555 176.32686829 -241.17805481 175.54946899 C-241.18308439 173.96120811 -241.18546437 172.37293681 -241.18530273 170.78466797 C-241.18747553 168.40183264 -241.20563606 166.01947167 -241.22460938 163.63671875 C-241.39174483 119.4744775 -223.07824149 78.8506162 -193 47 C-192.26652344 46.20207031 -191.53304687 45.40414062 -190.77734375 44.58203125 C-164.41532551 16.89971159 -126.22673379 0.71629726 -89 -5 C-88.28408691 -5.11714355 -87.56817383 -5.23428711 -86.83056641 -5.35498047 C-58.43508988 -9.88238054 -27.55367525 -8.09551844 0 0 Z " fill="#828685" transform="translate(564,310)"/>
<path d="M0 0 C9.32743221 -0.27923253 18.65340635 -0.49184014 27.98412037 -0.62174606 C32.31799213 -0.68412888 36.64898601 -0.76857683 40.98120117 -0.90527344 C45.17010457 -1.03660612 49.35625929 -1.10759513 53.54706383 -1.13852692 C55.13770504 -1.16053752 56.72821164 -1.20352594 58.31766701 -1.26876068 C71.38255687 -1.78316837 71.38255687 -1.78316837 76.24246216 2.48931885 C79.1217124 5.44126178 81.53629435 8.69908975 84 12 C85.26774894 13.35786001 86.56136054 14.69255815 87.89160156 15.98925781 C88.46879944 16.56315247 89.04599731 17.13704712 89.64068604 17.72833252 C90.21816589 18.29751404 90.79564575 18.86669556 91.390625 19.453125 C92.02434021 20.08305359 92.65805542 20.71298218 93.31097412 21.36199951 C95.2881436 23.32721166 97.26860354 25.28905038 99.25 27.25 C101.88323218 29.8563494 104.51291394 32.46621062 107.140625 35.078125 C107.72620178 35.65540344 108.31177856 36.23268188 108.9151001 36.82745361 C111.77317173 39.66880362 114.50609583 42.55482695 117.12036133 45.62255859 C121.83509479 51.07281952 126.99379337 56.08840923 132.11108208 61.15568161 C133.96691659 62.99394484 135.81902957 64.8358854 137.67018127 66.67886353 C142.92777479 71.91214177 148.19118595 77.13954148 153.45874023 82.36279297 C156.69348878 85.5708423 159.92341652 88.78367932 163.15037727 91.99956131 C164.37934934 93.22231414 165.61021697 94.44316477 166.84298515 95.6620903 C168.55666867 97.35667092 170.26420797 99.05721812 171.97045898 100.75927734 C172.48310303 101.26315979 172.99574707 101.76704224 173.52392578 102.28619385 C177 105.77210025 177 105.77210025 177 108 C177.55171875 108.21527344 178.1034375 108.43054688 178.671875 108.65234375 C181.76914483 110.44522646 183.91124374 112.90760373 186.25 115.5625 C186.70890625 116.06974609 187.1678125 116.57699219 187.640625 117.09960938 C191 120.8539109 191 120.8539109 191 122 C181.2032481 122.32623783 171.40781324 122.57404404 161.60671043 122.72537041 C157.05387216 122.79805388 152.50478209 122.89637833 147.95410156 123.05615234 C114.41620347 124.2036122 114.41620347 124.2036122 106.4960022 117.14285278 C104.38856834 114.77812664 102.59976482 112.38045111 100.99172974 109.6522522 C99.63519265 107.39221975 97.92280743 105.54215554 96.125 103.625 C95.61195313 103.01914062 95.09890625 102.41328125 94.5703125 101.7890625 C92.17052913 99.05498094 89.55590322 96.54736728 86.96484375 93.99609375 C85.07769256 92.07892823 83.31314625 90.10424678 81.5625 88.0625 C78.99334729 85.07198284 76.30682744 82.26883316 73.5 79.5 C70.0928121 76.13885518 66.92541826 72.66298797 63.8125 69.03125 C61.07222917 65.96025683 58.12053098 63.11213124 55.19140625 60.22265625 C52.57898932 57.5729856 50.16697379 54.78827197 47.74609375 51.96484375 C45.90384325 49.89179676 43.97598338 47.94564198 42 46 C39.4207494 43.46027814 36.97782611 40.87548686 34.625 38.125 C31.88378551 34.93317491 28.99314112 31.95697023 26 29 C23.13073759 26.16510001 20.35513289 23.32879341 17.75 20.25 C13.67699955 15.45707453 9.13823329 11.11777057 4.62207031 6.74707031 C4.02620117 6.16280273 3.43033203 5.57853516 2.81640625 4.9765625 C2.27443604 4.45143066 1.73246582 3.92629883 1.17407227 3.38525391 C0 2 0 2 0 0 Z " fill="#828685" transform="translate(510,526)"/>
<path d="M0 0 C24.09 0 48.18 0 73 0 C73 0.33 73 0.66 73 1 C72.14000397 1.00808685 71.28000793 1.01617371 70.39395142 1.02450562 C62.3005644 1.10235427 54.20734595 1.18961511 46.1141758 1.28752708 C41.95310442 1.33753399 37.79205899 1.38386341 33.63085938 1.421875 C29.61721133 1.45867262 25.603778 1.50501703 21.59031296 1.55806351 C20.05690644 1.57663696 18.52345384 1.59173396 16.98997879 1.60334396 C14.84677254 1.62015641 12.70406119 1.64917788 10.56103516 1.68115234 C9.33969879 1.69447601 8.11836243 1.70779968 6.86001587 1.7215271 C3.86946433 1.70703344 3.86946433 1.70703344 2 4 C1.34 2.68 0.68 1.36 0 0 Z " fill="#828685" transform="translate(510,526)"/>
<path d="M0 0 C0.99 0.33 1.98 0.66 3 1 C-3.27 7.27 -9.54 13.54 -16 20 C-16.33 19.01 -16.66 18.02 -17 17 C-11.39 11.39 -5.78 5.78 0 0 Z " fill="#828685" transform="translate(381,347)"/>
</svg>
